<svg xmlns="http://www.w3.org/2000/svg" viewBox="0 0 24 24" style="display: none;">
  <symbol id="lucide--eye" viewBox="0 0 24 24">
    <g fill="none" stroke="currentColor" stroke-linecap="round" stroke-linejoin="round" stroke-width="2">
      <path d="M2.062 12.348a1 1 0 0 1 0-.696a10.75 10.75 0 0 1 19.876 0a1 1 0 0 1 0 .696a10.75 10.75 0 0 1-19.876 0" />
      <circle cx="12" cy="12" r="3" />
    </g>
  </symbol>
  <symbol id="lucide--eye-off" viewBox="0 0 24 24">
    <g fill="none" stroke="currentColor" stroke-linecap="round" stroke-linejoin="round" stroke-width="2">
      <path d="M10.733 5.076a10.744 10.744 0 0 1 11.205 6.575a1 1 0 0 1 0 .696a10.8 10.8 0 0 1-1.444 2.49m-6.41-.679a3 3 0 0 1-4.242-4.242"/>
      <path d="M17.479 17.499a10.75 10.75 0 0 1-15.417-5.151a1 1 0 0 1 0-.696a10.75 10.75 0 0 1 4.446-5.143M2 2l20 20"/>
    </g>
  </symbol>
  <symbol id="material-symbols--menu-rounded" viewBox="0 0 24 24">
    <path fill="currentColor" d="M4 18q-.425 0-.712-.288T3 17t.288-.712T4 16h16q.425 0 .713.288T21 17t-.288.713T20 18zm0-5q-.425 0-.712-.288T3 12t.288-.712T4 11h16q.425 0 .713.288T21 12t-.288.713T20 13zm0-5q-.425 0-.712-.288T3 7t.288-.712T4 6h16q.425 0 .713.288T21 7t-.288.713T20 8z" />
  </symbol>
  <symbol id="material-symbols--edit-rounded" viewBox="0 0 24 24">
    <path fill="currentColor" d="M4 21q-.425 0-.712-.288T3 20v-2.425q0-.4.15-.763t.425-.637L16.2 3.575q.3-.275.663-.425t.762-.15t.775.15t.65.45L20.425 5q.3.275.437.65T21 6.4q0 .4-.138.763t-.437.662l-12.6 12.6q-.275.275-.638.425t-.762.15zM17.6 7.8L19 6.4L17.6 5l-1.4 1.4z" />
  </symbol>
  <symbol id="mdi--file" viewBox="0 0 24 24">
    <path fill="currentColor" d="M13 9V3.5L18.5 9M6 2c-1.11 0-2 .89-2 2v16a2 2 0 0 0 2 2h12a2 2 0 0 0 2-2V8l-6-6z" />
  </symbol>
  <symbol id="charm--menu-meatball" viewBox="0 0 16 16">
    <g fill="none" stroke="currentColor" stroke-linecap="round" stroke-linejoin="round" stroke-width="1.5">
      <circle cx="2.5" cy="8" r=".75" />
      <circle cx="8" cy="8" r=".75" />
      <circle cx="13.5" cy="8" r=".75" />
    </g>
  </symbol>
  <symbol id="material-symbols--settings" viewBox="0 0 24 24">
    <path fill="currentColor" d="m9.25 22l-.4-3.2q-.325-.125-.612-.3t-.563-.375L4.7 19.375l-2.75-4.75l2.575-1.95Q4.5 12.5 4.5 12.338v-.675q0-.163.025-.338L1.95 9.375l2.75-4.75l2.975 1.25q.275-.2.575-.375t.6-.3l.4-3.2h5.5l.4 3.2q.325.125.613.3t.562.375l2.975-1.25l2.75 4.75l-2.575 1.95q.025.175.025.338v.674q0 .163-.05.338l2.575 1.95l-2.75 4.75l-2.95-1.25q-.275.2-.575.375t-.6.3l-.4 3.2zm2.8-6.5q1.45 0 2.475-1.025T15.55 12t-1.025-2.475T12.05 8.5q-1.475 0-2.488 1.025T8.55 12t1.013 2.475T12.05 15.5" />
  </symbol>
  <symbol id="fe--question" viewBox="0 0 24 24">
    <path fill="currentColor" fill-rule="evenodd" d="M12 22C6.477 22 2 17.523 2 12S6.477 2 12 2s10 4.477 10 10s-4.477 10-10 10m0-2a8 8 0 1 0 0-16a8 8 0 0 0 0 16m-1-4h2v2h-2zm0-1.992s2-.008 2 0C13 13.006 16 12 16 10c0-2.21-1.773-4-3.991-4A4 4 0 0 0 8 10h2c0-1.1.9-2 2-2s2 .9 2 2c0 .9-3 2.367-3 4.008" />
  </symbol>
</svg>