<svg xmlns="http://www.w3.org/2000/svg" viewBox="0 0 24 24" style="display: none;">
  <symbol id="lucide--eye" viewBox="0 0 24 24">
    <g fill="none" stroke="currentColor" stroke-linecap="round" stroke-linejoin="round" stroke-width="2">
      <path d="M2.062 12.348a1 1 0 0 1 0-.696a10.75 10.75 0 0 1 19.876 0a1 1 0 0 1 0 .696a10.75 10.75 0 0 1-19.876 0" />
      <circle cx="12" cy="12" r="3" />
    </g>
  </symbol>
  <symbol id="lucide--eye-off" viewBox="0 0 24 24">
    <g fill="none" stroke="currentColor" stroke-linecap="round" stroke-linejoin="round" stroke-width="2">
      <path d="M10.733 5.076a10.744 10.744 0 0 1 11.205 6.575a1 1 0 0 1 0 .696a10.8 10.8 0 0 1-1.444 2.49m-6.41-.679a3 3 0 0 1-4.242-4.242"/>
      <path d="M17.479 17.499a10.75 10.75 0 0 1-15.417-5.151a1 1 0 0 1 0-.696a10.75 10.75 0 0 1 4.446-5.143M2 2l20 20"/>
    </g>
  </symbol>
  <symbol id="material-symbols--menu-rounded" viewBox="0 0 24 24">
    <path fill="currentColor" d="M4 18q-.425 0-.712-.288T3 17t.288-.712T4 16h16q.425 0 .713.288T21 17t-.288.713T20 18zm0-5q-.425 0-.712-.288T3 12t.288-.712T4 11h16q.425 0 .713.288T21 12t-.288.713T20 13zm0-5q-.425 0-.712-.288T3 7t.288-.712T4 6h16q.425 0 .713.288T21 7t-.288.713T20 8z" />
  </symbol>
  <symbol id="material-symbols--edit-rounded" viewBox="0 0 24 24">
    <path fill="currentColor" d="M4 21q-.425 0-.712-.288T3 20v-2.425q0-.4.15-.763t.425-.637L16.2 3.575q.3-.275.663-.425t.762-.15t.775.15t.65.45L20.425 5q.3.275.437.65T21 6.4q0 .4-.138.763t-.437.662l-12.6 12.6q-.275.275-.638.425t-.762.15zM17.6 7.8L19 6.4L17.6 5l-1.4 1.4z" />
  </symbol>
  <symbol id="mdi--file" viewBox="0 0 24 24">
    <path fill="currentColor" d="M13 9V3.5L18.5 9M6 2c-1.11 0-2 .89-2 2v16a2 2 0 0 0 2 2h12a2 2 0 0 0 2-2V8l-6-6z" />
  </symbol>
  <symbol id="charm--menu-meatball" viewBox="0 0 16 16">
    <g fill="none" stroke="currentColor" stroke-linecap="round" stroke-linejoin="round" stroke-width="1.5">
      <circle cx="2.5" cy="8" r=".75" />
      <circle cx="8" cy="8" r=".75" />
      <circle cx="13.5" cy="8" r=".75" />
    </g>
  </symbol>
  <symbol id="material-symbols--settings" viewBox="0 0 24 24">
    <path fill="currentColor" d="m9.25 22l-.4-3.2q-.325-.125-.612-.3t-.563-.375L4.7 19.375l-2.75-4.75l2.575-1.95Q4.5 12.5 4.5 12.338v-.675q0-.163.025-.338L1.95 9.375l2.75-4.75l2.975 1.25q.275-.2.575-.375t.6-.3l.4-3.2h5.5l.4 3.2q.325.125.613.3t.562.375l2.975-1.25l2.75 4.75l-2.575 1.95q.025.175.025.338v.674q0 .163-.05.338l2.575 1.95l-2.75 4.75l-2.95-1.25q-.275.2-.575.375t-.6.3l-.4 3.2zm2.8-6.5q1.45 0 2.475-1.025T15.55 12t-1.025-2.475T12.05 8.5q-1.475 0-2.488 1.025T8.55 12t1.013 2.475T12.05 15.5" />
  </symbol>
  <symbol id="fe--question" viewBox="0 0 24 24">
    <path fill="currentColor" fill-rule="evenodd" d="M12 22C6.477 22 2 17.523 2 12S6.477 2 12 2s10 4.477 10 10s-4.477 10-10 10m0-2a8 8 0 1 0 0-16a8 8 0 0 0 0 16m-1-4h2v2h-2zm0-1.992s2-.008 2 0C13 13.006 16 12 16 10c0-2.21-1.773-4-3.991-4A4 4 0 0 0 8 10h2c0-1.1.9-2 2-2s2 .9 2 2c0 .9-3 2.367-3 4.008" />
  </symbol>
  <symbol id="mdi--user" viewBox="0 0 24 24">
    <path fill="currentColor" d="M12 4a4 4 0 0 1 4 4a4 4 0 0 1-4 4a4 4 0 0 1-4-4a4 4 0 0 1 4-4m0 10c4.42 0 8 1.79 8 4v2H4v-2c0-2.21 3.58-4 8-4" />
  </symbol>
  <symbol id="material-symbols--folder-outline" viewBox="0 0 24 24">
    <path fill="currentColor" d="M4 20q-.825 0-1.412-.587T2 18V6q0-.825.588-1.412T4 4h6l2 2h8q.825 0 1.413.588T22 8v10q0 .825-.587 1.413T20 20zm0-2h16V8h-8.825l-2-2H4zm0 0V6z" />
  </symbol>
  <symbol id="mingcute--code-line" viewBox="0 0 24 24">
    <g fill="none">
      <path d="M0 0h24v24H0z" />
      <path fill="currentColor" d="M14.486 3.143a1 1 0 0 1 .692 1.233l-4.43 15.788a1 1 0 0 1-1.926-.54l4.43-15.788a1 1 0 0 1 1.234-.693M7.207 7.05a1 1 0 0 1 0 1.414L3.672 12l3.535 3.535a1 1 0 1 1-1.414 1.415L1.55 12.707a1 1 0 0 1 0-1.414L5.793 7.05a1 1 0 0 1 1.414 0m9.586 1.414a1 1 0 1 1 1.414-1.414l4.243 4.243a1 1 0 0 1 0 1.414l-4.243 4.243a1 1 0 0 1-1.414-1.415L20.328 12z" />
    </g>
  </symbol>
  <symbol id="material-symbols--delete-outline-rounded" viewBox="0 0 24 24">
    <path fill="currentColor" d="M7 21q-.825 0-1.412-.587T5 19V6q-.425 0-.712-.288T4 5t.288-.712T5 4h4q0-.425.288-.712T10 3h4q.425 0 .713.288T15 4h4q.425 0 .713.288T20 5t-.288.713T19 6v13q0 .825-.587 1.413T17 21zM17 6H7v13h10zm-7 11q.425 0 .713-.288T11 16V9q0-.425-.288-.712T10 8t-.712.288T9 9v7q0 .425.288.713T10 17m4 0q.425 0 .713-.288T15 16V9q0-.425-.288-.712T14 8t-.712.288T13 9v7q0 .425.288.713T14 17M7 6v13z" />
  </symbol>
  <symbol id="bi--stars" viewBox="0 0 16 16">
    <path fill="currentColor" d="M7.657 6.247c.11-.33.576-.33.686 0l.645 1.937a2.89 2.89 0 0 0 1.829 1.828l1.936.645c.33.11.33.576 0 .686l-1.937.645a2.89 2.89 0 0 0-1.828 1.829l-.645 1.936a.361.361 0 0 1-.686 0l-.645-1.937a2.89 2.89 0 0 0-1.828-1.828l-1.937-.645a.361.361 0 0 1 0-.686l1.937-.645a2.89 2.89 0 0 0 1.828-1.828zM3.794 1.148a.217.217 0 0 1 .412 0l.387 1.162c.173.518.579.924 1.097 1.097l1.162.387a.217.217 0 0 1 0 .412l-1.162.387A1.73 1.73 0 0 0 4.593 5.69l-.387 1.162a.217.217 0 0 1-.412 0L3.407 5.69A1.73 1.73 0 0 0 2.31 4.593l-1.162-.387a.217.217 0 0 1 0-.412l1.162-.387A1.73 1.73 0 0 0 3.407 2.31zM10.863.099a.145.145 0 0 1 .274 0l.258.774c.115.346.386.617.732.732l.774.258a.145.145 0 0 1 0 .274l-.774.258a1.16 1.16 0 0 0-.732.732l-.258.774a.145.145 0 0 1-.274 0l-.258-.774a1.16 1.16 0 0 0-.732-.732L9.1 2.137a.145.145 0 0 1 0-.274l.774-.258c.346-.115.617-.386.732-.732z" />
  </symbol>
  <symbol id="teenyicons--send-outline" viewBox="0 0 15 15">
    <path fill="currentColor" d="m14.5.5l.46.197a.5.5 0 0 0-.657-.657zm-14 6l-.197-.46a.5.5 0 0 0-.06.889zm8 8l-.429.257a.5.5 0 0 0 .889-.06zM14.303.04l-14 6l.394.92l14-6zM.243 6.93l5 3l.514-.858l-5-3zM5.07 9.757l3 5l.858-.514l-3-5zm3.889 4.94l6-14l-.92-.394l-6 14zM14.146.147l-9 9l.708.707l9-9z" />
  </symbol>
  <symbol id="ic--round-plus" viewBox="0 0 24 24">
    <path fill="currentColor" d="M18 12.998h-5v5a1 1 0 0 1-2 0v-5H6a1 1 0 0 1 0-2h5v-5a1 1 0 0 1 2 0v5h5a1 1 0 0 1 0 2" />
  </symbol>
  <symbol id="fluent--bot-16-filled" viewBox="0 0 16 16">
    <path fill="currentColor" d="M8 1a.5.5 0 0 1 .5.5V2h2A1.5 1.5 0 0 1 12 3.5v3A1.5 1.5 0 0 1 10.5 8h-5A1.5 1.5 0 0 1 4 6.5v-3A1.5 1.5 0 0 1 5.5 2h2v-.5A.5.5 0 0 1 8 1M4.5 9.5A1.5 1.5 0 0 0 3 11v.35c0 1.305.6 2.25 1.554 2.843C5.479 14.768 6.71 15 8 15c1.297 0 2.528-.231 3.452-.807C12.406 13.6 13 12.653 13 11.35V11a1.5 1.5 0 0 0-1.5-1.5zm2-3.75a.75.75 0 1 0 0-1.5a.75.75 0 0 0 0 1.5M10.25 5a.75.75 0 1 0-1.5 0a.75.75 0 0 0 1.5 0" />
  </symbol>
</svg>